<svg xmlns="http://www.w3.org/2000/svg" xmlns:xlink="http://www.w3.org/1999/xlink" version="1.1" x="0px" y="0px" viewBox="0 0 50 50" style="enable-background:new 0 0 50 50;" xml:space="preserve" width="50px" height="50px"><g><path d="M29.8,27v1.2H33v17.2c0,1.9,1.6,3.5,3.5,3.5h0c1.9,0,3.5-1.6,3.5-3.5V1C33.4,8.1,29.8,17.4,29.8,27z"/><path d="M19.8,16.9h-2V1h-2.4v15.9h-2V1H10v14.1c0,2.6,1.2,5,3.3,6.5v24.2c0,1.8,1.4,3.2,3.2,3.2c1.8,0,3.2-1.4,3.2-3.2V21.6   c2.1-1.5,3.3-3.9,3.3-6.5V1h-3.3V16.9z"/></g></svg>