<!DOCTYPE svg PUBLIC "-//W3C//DTD SVG 20010904//EN"
 "http://www.w3.org/TR/2001/REC-SVG-20010904/DTD/svg10.dtd">
<svg version="1.0" xmlns="http://www.w3.org/2000/svg"
 viewBox="0 0 320.000000 57.000000"
 preserveAspectRatio="xMidYMid meet">
<g transform="translate(0.000000,57.000000) scale(0.100000,-0.100000)"
fill="#000000" stroke="none">
<path d="M3157 523 c-4 -3 -7 -62 -7 -130 l0 -123 -728 0 -728 0 -29 -90 c-16
-49 -32 -87 -36 -84 -4 2 -20 43 -36 89 l-27 85 -758 0 -758 0 -1 128 c-2 107
-3 118 -9 67 -4 -33 -8 -95 -9 -137 l-1 -78 761 -2 761 -3 34 -95 c19 -52 37
-102 40 -110 4 -9 22 30 44 95 l37 110 731 3 732 2 0 140 c0 77 -1 140 -3 140
-2 0 -7 -3 -10 -7z"/>
</g>
</svg>
