<svg xmlns="http://www.w3.org/2000/svg" data-name="Layer 1" viewBox="0 0 100 100" x="0px" y="0px" width="100px" height="100px"><title>Artboard 1</title><path d="M12.63,93.28h8.68v3a2.3,2.3,0,0,0,2.3,2.3h6.81a2.3,2.3,0,0,0,2.3-2.3v-3H67.29v3a2.3,2.3,0,0,0,2.3,2.3H76.4a2.3,2.3,0,0,0,2.3-2.3v-3h8.68A10.24,10.24,0,0,0,97.61,83V30.36A10.24,10.24,0,0,0,87.37,20.12H64.9A17.49,17.49,0,0,0,61,15.56L69.56,7A3.25,3.25,0,0,0,65,2.37l-10,10a17.17,17.17,0,0,0-9.88,0l-10-10A3.25,3.25,0,0,0,30.44,7l8.6,8.6a17.47,17.47,0,0,0-3.95,4.56H12.63A10.24,10.24,0,0,0,2.39,30.36V83A10.24,10.24,0,0,0,12.63,93.28Zm71.61-50a3.47,3.47,0,1,1-3.47,3.47A3.47,3.47,0,0,1,84.24,43.32Zm0,9.86a3.47,3.47,0,1,1-3.47,3.47A3.47,3.47,0,0,1,84.24,53.18Zm0,9.86a3.47,3.47,0,1,1-3.47,3.47A3.47,3.47,0,0,1,84.24,63ZM13.84,37.72a5.49,5.49,0,0,1,5.49-5.49H66.44a5.49,5.49,0,0,1,5.49,5.49v38a5.49,5.49,0,0,1-5.49,5.49H19.33a5.49,5.49,0,0,1-5.49-5.49Z"/></svg>