<svg xmlns="http://www.w3.org/2000/svg" xmlns:xlink="http://www.w3.org/1999/xlink" version="1.1" x="0px" y="0px" viewBox="0 0 100 100" enable-background="new 0 0 100 100" xml:space="preserve" width="100px" height="100px"><g><path d="M85.48,40.11c0,0.23,0,0.44-0.021,0.67c-0.05,1.56-0.27,3.09-0.65,4.55H63.14l-4.39-12.14c-0.46-1.25-1.64-2.08-2.97-2.08   s-2.521,0.83-2.971,2.08l-7.33,20.25L43.3,47.42c-0.45-1.25-1.67-2.09-3-2.09H16.44c-0.39-1.46-0.61-2.98-0.66-4.55   c-0.02-0.11-0.02-0.23-0.02-0.32c-0.01-0.12-0.01-0.23-0.01-0.35c0-11.38,9.22-20.61,20.61-20.61c5.53,0,10.54,2.18,14.26,5.73   c3.689-3.55,8.71-5.73,14.25-5.73C76.26,19.5,85.48,28.73,85.48,40.11z"/><path d="M81.96,51.65c-0.72,1.06-1.53,2.04-2.43,2.949c-0.13,0.16-0.28,0.32-0.42,0.471L55.72,78.45   c-1.31,1.319-3.069,2.05-4.96,2.05H50.57c-1.89,0-3.67-0.73-4.98-2.07L22.68,55.52c-1.29-1.14-2.44-2.439-3.4-3.869h18.83   l4.4,12.14c0.45,1.25,1.64,2.09,2.97,2.09s2.52-0.84,2.97-2.09l7.33-20.24l2.18,6.02c0.45,1.25,1.64,2.081,2.97,2.081H81.96z"/></g></svg>