<svg xmlns="http://www.w3.org/2000/svg" xmlns:xlink="http://www.w3.org/1999/xlink" version="1.1" x="0px" y="0px" viewBox="0 0 48 48" enable-background="new 0 0 48 48" xml:space="preserve" width="48px" height="48px"><g><path fill="#000000" d="M39.8,8c2,2,4.4,3.3,7,3.8c0.1-3.3-0.4-6.4-1.5-9.3l0,0c0,0,0,0,0,0c0,0,0,0,0,0l0,0   c-2.9-1.1-6-1.6-9.3-1.5C36.6,3.7,37.9,6.1,39.8,8z"/><path fill="#000000" d="M8.5,40.1c-2-2-4.6-3.4-7.4-3.9c-0.1,3.3,0.4,6.4,1.5,9.2l0,0c0,0,0,0,0,0c0,0,0,0,0,0l0,0   c3,1.2,6.2,1.6,9.6,1.5C11.7,44.4,10.4,42,8.5,40.1z"/><path fill="#000000" d="M37.7,10.1c-2.4-2.4-4-5.5-4.7-8.9c-7.2,1-14.7,4.7-20.8,10.8C6,18.3,2.3,25.9,1.4,33.2   c3.5,0.6,6.7,2.2,9.3,4.8c2.4,2.4,4,5.4,4.6,8.7c7.1-1,14.4-4.7,20.5-10.8c6.2-6.2,9.8-13.8,10.8-21C43.2,14.2,40.2,12.6,37.7,10.1   z M32.3,21.1l-2.1,2.1l-1.6-1.7L26.1,24l1.7,1.7l-2.1,2.1L24,26.1l-2.4,2.4l1.7,1.7l-2.1,2.1l-1.6-1.7l-2.1,2.1l-2.1-2.1l2.1-2.1   l-1.7-1.7l2.1-2.1l1.6,1.7l2.4-2.4l-1.7-1.7l2.1-2.1l1.6,1.7l2.4-2.4l-1.7-1.7l2.1-2.1l1.6,1.7l2.1-2.1l2.1,2.1l-2.1,2.1L32.3,21.1   z"/></g></svg>