<svg xmlns="http://www.w3.org/2000/svg" xmlns:xlink="http://www.w3.org/1999/xlink" xmlns:sketch="http://www.bohemiancoding.com/sketch/ns" viewBox="0 0 100 100" version="1.1" x="0px" y="0px" width="100px" height="100px"><title>plus</title><desc>Created with Sketch.</desc><g stroke="none" stroke-width="1" fill="none" fill-rule="evenodd" sketch:type="MSPage"><g sketch:type="MSArtboardGroup" fill="#000000"><path d="M88.7395652,56.0867391 L56.1302174,56.0867391 L56.1302174,88.696087 C56.1302174,91.7404348 53.6669565,94.2036957 50.6226087,94.2036957 C47.5802174,94.2036957 45.115,91.7404348 45.115,88.696087 L45.115,56.0867391 L12.5076087,56.0867391 C9.46326087,56.0867391 7,53.6234783 7,50.5791304 C7,47.5367391 9.46326087,45.0734783 12.5076087,45.0734783 L45.115,45.0734783 L45.115,12.4641304 C45.115,9.41978261 47.5802174,6.95652174 50.6226087,6.95652174 C53.6669565,6.95652174 56.1302174,9.41978261 56.1302174,12.4641304 L56.1302174,45.0734783 L88.7395652,45.0734783 C91.7819565,45.0734783 94.2471739,47.5367391 94.2471739,50.5791304 C94.2471739,53.6234783 91.7819565,56.0867391 88.7395652,56.0867391" sketch:type="MSShapeGroup"/></g></g></svg>